<svg width="33" height="33" viewBox="0 0 33 33" fill="none" xmlns="http://www.w3.org/2000/svg">
<path fill-rule="evenodd" clip-rule="evenodd" d="M5.99844 16C5.99844 15.6969 6.11958 15.4063 6.33522 15.192C6.55087 14.9777 6.84334 14.8573 7.14831 14.8573L20.4707 14.8573L15.5332 9.95309C15.4263 9.84685 15.3415 9.72073 15.2836 9.58192C15.2257 9.44311 15.196 9.29433 15.196 9.14409C15.196 8.99385 15.2257 8.84507 15.2836 8.70626C15.3415 8.56746 15.4263 8.44133 15.5332 8.33509C15.6401 8.22885 15.767 8.14458 15.9067 8.08709C16.0464 8.02959 16.1961 8 16.3473 8C16.4985 8 16.6482 8.02959 16.7879 8.08709C16.9276 8.14458 17.0545 8.22885 17.1614 8.33509L24.0606 15.191C24.1677 15.2971 24.2527 15.4232 24.3106 15.5621C24.3686 15.7009 24.3984 15.8497 24.3984 16C24.3984 16.1503 24.3686 16.2991 24.3106 16.4379C24.2527 16.5768 24.1677 16.7029 24.0606 16.809L17.1614 23.6649C16.9455 23.8795 16.6526 24 16.3473 24C16.0419 24 15.7491 23.8795 15.5332 23.6649C15.3173 23.4503 15.196 23.1593 15.196 22.8559C15.196 22.5525 15.3173 22.2615 15.5332 22.0469L20.4707 17.1426L7.14831 17.1426C6.84334 17.1426 6.55087 17.0223 6.33522 16.808C6.11958 16.5937 5.99844 16.303 5.99844 16Z" fill="black"/>
<rect x="0.5" y="0.5" width="32" height="32" rx="7.5" stroke="#060606"/>
</svg>
